name C:\Users\u0101727\Documents\MyRepositories\upper-imu-dc\Results\main_tracking\Case_48\ABD01_linearAccelerations_groundFrame.mot
datacolumns 4
datarows 105
range 2.81000000 3.85000000
endheader 
time	radius_imu_x	radius_imu_y	radius_imu_z	
          2.81000000	          0.02312845	          9.86194217	          0.16810772	
          2.82000000	          0.06095799	          9.78893546	         -0.08692834	
          2.83000000	          0.07360368	          9.75576107	         -0.17597885	
          2.84000000	          0.08469856	          9.74968311	         -0.19611479	
          2.85000000	          0.08876546	          9.75229195	         -0.18397237	
          2.86000000	          0.08755819	          9.75858863	         -0.15842453	
          2.87000000	          0.08376294	          9.76578818	         -0.12694125	
          2.88000000	          0.07825724	          9.77317609	         -0.09195203	
          2.89000000	          0.07070215	          9.78070455	         -0.05337851	
          2.90000000	          0.06082086	          9.78871225	         -0.01012888	
          2.91000000	          0.04882225	          9.79770869	          0.03925848	
          2.92000000	          0.03526967	          9.80827076	          0.09627991	
          2.93000000	          0.02082919	          9.82092780	          0.16221496	
          2.94000000	          0.00615476	          9.83608976	          0.23790036	
          2.95000000	         -0.00810572	          9.85402033	          0.32357881	
          2.96000000	         -0.02123318	          9.87484347	          0.41879189	
          2.97000000	         -0.03241431	          9.89854812	          0.52230568	
          2.98000000	         -0.04076544	          9.92499518	          0.63213670	
          2.99000000	         -0.04532165	          9.95395151	          0.74576504	
          3.00000000	         -0.04517106	          9.98514521	          0.86053350	
          3.01000000	         -0.03968227	         10.01829851	          0.97401714	
          3.02000000	         -0.02862011	         10.05310567	          1.08414104	
          3.03000000	         -0.01225032	         10.08919623	          1.18916545	
          3.04000000	          0.00867702	         10.12613536	          1.28770281	
          3.05000000	          0.03311263	         10.16344896	          1.37873319	
          3.06000000	          0.05986579	         10.20064266	          1.46156146	
          3.07000000	          0.08767552	         10.23721498	          1.53573862	
          3.08000000	          0.11529628	         10.27267462	          1.60096844	
          3.09000000	          0.14167073	         10.30654892	          1.65694799	
          3.10000000	          0.16614490	         10.33839882	          1.70322682	
          3.11000000	          0.18858096	         10.36788191	          1.73924343	
          3.12000000	          0.20954986	         10.39481836	          1.76442832	
          3.13000000	          0.23041496	         10.41919550	          1.77821765	
          3.14000000	          0.25312585	         10.44111210	          1.77998964	
          3.15000000	          0.28002176	         10.46069661	          1.76902535	
          3.16000000	          0.31362200	         10.47808361	          1.74467013	
          3.17000000	          0.35641960	         10.49346258	          1.70668012	
          3.18000000	          0.41066218	         10.50713542	          1.65550864	
          3.19000000	          0.47806967	         10.51956941	          1.59247351	
          3.20000000	          0.55942952	         10.53140637	          1.51971279	
          3.21000000	          0.65417922	         10.54326921	          1.43954544	
          3.22000000	          0.76015742	         10.55549741	          1.35368948	
          3.23000000	          0.87358704	         10.56818310	          1.26334573	
          3.24000000	          0.98936697	         10.58138784	          1.16973930	
          3.25000000	          1.10168182	         10.59518107	          1.07417697	
          3.26000000	          1.20472596	         10.60955022	          0.97782090	
          3.27000000	          1.29328609	         10.62437552	          0.88168543	
          3.28000000	          1.36306432	         10.63941862	          0.78670454	
          3.29000000	          1.41082003	         10.65420652	          0.69356264	
          3.30000000	          1.43437596	         10.66795578	          0.60259182	
          3.31000000	          1.43235545	         10.67971239	          0.51405768	
          3.32000000	          1.40368347	         10.68849795	          0.42832752	
          3.33000000	          1.34721413	         10.69317948	          0.34541046	
          3.34000000	          1.26163969	         10.69230296	          0.26454219	
          3.35000000	          1.14548897	         10.68429761	          0.18464258	
          3.36000000	          0.99732509	         10.66783158	          0.10501959	
          3.37000000	          0.81620996	         10.64192443	          0.02546511	
          3.38000000	          0.60195800	         10.60587908	         -0.05403941	
          3.39000000	          0.35488473	         10.55919967	         -0.13359135	
          3.40000000	          0.07536510	         10.50151083	         -0.21354311	
          3.41000000	         -0.23628986	         10.43255481	         -0.29446382	
          3.42000000	         -0.57916320	         10.35235491	         -0.37686186	
          3.43000000	         -0.94973100	         10.26130648	         -0.46117409	
          3.44000000	         -1.33979125	         10.16002984	         -0.54824272	
          3.45000000	         -1.73797135	         10.04923728	         -0.63940651	
          3.46000000	         -2.14113326	          9.93106306	         -0.73393584	
          3.47000000	         -2.57364861	          9.80929756	         -0.82725432	
          3.48000000	         -2.96064938	          9.68073888	         -0.93229551	
          3.49000000	         -3.38826322	          9.57038375	         -1.01329595	
          3.50000000	         -3.78711771	          9.46436516	         -1.09883848	
          3.51000000	         -4.15440304	          9.38015227	         -1.16944968	
          3.52000000	         -4.42009410	          9.35025865	         -1.18940549	
          3.53000000	         -4.52146724	          9.38998887	         -1.14347719	
          3.54000000	         -4.41991516	          9.50456716	         -1.02175670	
          3.55000000	         -4.09531166	          9.73127967	         -0.74042643	
          3.56000000	         -3.54479494	         10.04936182	         -0.36736211	
          3.57000000	         -3.29268116	         10.21024179	         -0.22868825	
          3.58000000	         -3.13810691	         10.28571413	         -0.19526233	
          3.59000000	         -2.98192523	         10.32478639	         -0.20877834	
          3.60000000	         -2.78566493	         10.32915320	         -0.26153414	
          3.61000000	         -2.62989241	         10.33873707	         -0.30984364	
          3.62000000	         -2.45507663	         10.31952148	         -0.38855711	
          3.63000000	         -2.28559410	         10.27097578	         -0.49640466	
          3.64000000	         -2.13675763	         10.20972390	         -0.61380382	
          3.65000000	         -1.99835255	         10.14115222	         -0.73311402	
          3.66000000	         -1.86176101	         10.06843651	         -0.84924315	
          3.67000000	         -1.72327348	          9.99924689	         -0.95323336	
          3.68000000	         -1.58034682	          9.94070028	         -1.03774576	
          3.69000000	         -1.43080088	          9.89703887	         -1.09923555	
          3.70000000	         -1.27402330	          9.87049804	         -1.13685351	
          3.71000000	         -1.11203337	          9.86258277	         -1.15102678	
          3.72000000	         -0.94924207	          9.87404481	         -1.14330647	
          3.73000000	         -0.79094955	          9.90374972	         -1.11712992	
          3.74000000	         -0.64160128	          9.94794117	         -1.07808771	
          3.75000000	         -0.50392927	         10.00077973	         -1.03306937	
          3.76000000	         -0.37951151	         10.05606465	         -0.98858128	
          3.77000000	         -0.26975620	         10.10886731	         -0.94940481	
          3.78000000	         -0.17553128	         10.15547926	         -0.91875599	
          3.79000000	         -0.09617137	         10.19266374	         -0.89890650	
          3.80000000	         -0.02954318	         10.21809449	         -0.89079701	
          3.81000000	          0.02757036	         10.23121089	         -0.89345795	
          3.82000000	          0.07946013	         10.23316698	         -0.90431349	
          3.83000000	          0.13081272	         10.22638231	         -0.91988459	
          3.84000000	          0.18548967	         10.21395700	         -0.93656169	
          3.85000000	          0.24593296	         10.19859041	         -0.95156523	
